HIERARCHY
ROOT SpineBase
{
  OFFSET 0.000000 0.000000 0.000000
  CHANNELS 6 Xposition Yposition Zposition Zrotation Xrotation Yrotation
  JOINT SpineMid
  {
    OFFSET 0.000000 25.590706 0.000000
    CHANNELS 3 Zrotation Xrotation Yrotation
    JOINT SpineShoulder
    {
      OFFSET -0.127001 19.113538 -0.739863
      CHANNELS 3 Zrotation Xrotation Yrotation
      JOINT Neck
      {
        OFFSET -0.087363 6.359152 -0.566715
        CHANNELS 3 Zrotation Xrotation Yrotation
        JOINT Head
        {
          OFFSET 1.403173 10.870950 -0.374001
          CHANNELS 3 Zrotation Xrotation Yrotation
          End Site
          {
            OFFSET 0 0 0
          }
        }
      }
      JOINT ShoulderLeft
      {
        OFFSET -13.520933 -2.420280 -7.502208
        CHANNELS 3 Zrotation Xrotation Yrotation
        JOINT ElbowLeft
        {
          OFFSET -3.360203 -20.293967 -1.261506
          CHANNELS 3 Zrotation Xrotation Yrotation
          JOINT WristLeft
          {
            OFFSET -1.125670 -15.762521 -13.967792
            CHANNELS 3 Zrotation Xrotation Yrotation
            JOINT HandLeft
            {
              OFFSET 1.975482 -5.371103 0.611115
              CHANNELS 3 Zrotation Xrotation Yrotation
              JOINT HandTipLeft
              {
                OFFSET 2.521626 -4.606707 -2.287598
                CHANNELS 3 Zrotation Xrotation Yrotation
                End Site
                {
                  OFFSET 0 0 0
                }
              }
              JOINT ThumbLeft
              {
                OFFSET -3.591859 -1.443557 2.215115
                CHANNELS 3 Zrotation Xrotation Yrotation
                End Site
                {
                  OFFSET 0 0 0
                }
              }
            }
          }
        }
      }
      JOINT ShoulderRight
      {
        OFFSET 15.345823 -3.130109 2.302159
        CHANNELS 3 Zrotation Xrotation Yrotation
        JOINT ElbowRight
        {
          OFFSET 7.256110 -20.564242 3.172947
          CHANNELS 3 Zrotation Xrotation Yrotation
          JOINT WristRight
          {
            OFFSET 4.378362 -12.378623 -11.481366
            CHANNELS 3 Zrotation Xrotation Yrotation
            JOINT HandRight
            {
              OFFSET -1.603558 -0.475950 -2.862286
              CHANNELS 3 Zrotation Xrotation Yrotation
              JOINT HandTipRight
              {
                OFFSET 0.224813 -1.241082 -5.855604
                CHANNELS 3 Zrotation Xrotation Yrotation
                End Site
                {
                  OFFSET 0 0 0
                }
              }
              JOINT ThumbRight
              {
                OFFSET 2.972487 2.192570 -3.709018
                CHANNELS 3 Zrotation Xrotation Yrotation
                End Site
                {
                  OFFSET 0 0 0
                }
              }
            }
          }
        }
      }
    }
  }
  JOINT HipLeft
  {
    OFFSET -6.290732 1.053660 -4.210650
    CHANNELS 3 Zrotation Xrotation Yrotation
    JOINT KneeLeft
    {
      OFFSET 8.246126 -0.661212 -29.275826
      CHANNELS 3 Zrotation Xrotation Yrotation
      JOINT AnkleLeft
      {
        OFFSET 2.137104 -36.926626 8.224120
        CHANNELS 3 Zrotation Xrotation Yrotation
        JOINT FootLeft
        {
          OFFSET 3.171395 -4.863383 -8.312555
          CHANNELS 3 Zrotation Xrotation Yrotation
          End Site
          {
            OFFSET 0 0 0
          }
        }
      }
    }
  }
  JOINT HipRight
  {
    OFFSET 5.690325 0.672137 -1.719609
    CHANNELS 3 Zrotation Xrotation Yrotation
    JOINT KneeRight
    {
      OFFSET 23.914245 2.366771 -16.245039
      CHANNELS 3 Zrotation Xrotation Yrotation
      JOINT AnkleRight
      {
        OFFSET -1.500284 -36.303729 1.748434
        CHANNELS 3 Zrotation Xrotation Yrotation
        JOINT FootRight
        {
          OFFSET -0.186873 -7.178916 -6.704500
          CHANNELS 3 Zrotation Xrotation Yrotation
          End Site
          {
            OFFSET 0 0 0
          }
        }
      }
    }
  }
}
MOTION
Frames: 8
Frame Time: 0.033333
39.716409 44.136085 376.681844 -0.000000 0.000000 -11.745310 -0.000000 0.000000 11.745310 -0.000000 0.000000 0.000000 -0.000000 0.000000 0.000000 0.000000 0.000000 0.000000 -0.000000 0.000000 0.000000 -0.000000 0.000000 0.000000 -0.000000 0.000000 0.000000 -0.000000 0.000000 0.000000 0.000000 0.000000 0.000000 0.000000 0.000000 0.000000 -0.000000 0.000000 0.000000 -0.000000 0.000000 0.000000 -0.000000 0.000000 0.000000 -0.000000 0.000000 0.000000 0.000000 0.000000 0.000000 0.000000 0.000000 0.000000 -0.000000 0.000000 11.745310 -0.000000 0.000000 0.000000 -0.000000 0.000000 0.000000 0.000000 0.000000 0.000000 -0.000000 0.000000 11.745310 -0.000000 0.000000 0.000000 -0.000000 0.000000 0.000000 0.000000 0.000000 0.000000
39.935345 44.120324 376.711677 0.233264 -0.021932 -11.461842 -0.232971 -0.024859 11.461837 -0.000000 0.000000 0.000000 -0.000000 0.000000 0.000000 0.000000 0.000000 0.000000 -0.000000 0.000000 0.000000 -0.000000 0.000000 0.000000 1.426128 -0.824414 -0.129990 -1.209475 -1.377804 -1.169370 0.000000 0.000000 0.000000 0.000000 0.000000 0.000000 -0.000000 0.000000 0.000000 -0.000000 0.000000 0.000000 2.573361 -3.544181 -4.675907 -3.335940 3.284413 7.123039 0.000000 0.000000 0.000000 0.000000 0.000000 0.000000 -0.232971 -0.024859 11.461837 -0.000000 0.000000 0.000000 0.392079 6.200243 3.064409 0.000000 0.000000 0.000000 -0.232971 -0.024859 11.461837 -0.000000 0.000000 0.000000 1.134385 8.201341 -1.269884 0.000000 0.000000 0.000000
40.085847 44.103972 376.757094 0.378855 -0.068367 -11.176165 -0.384921 -0.006362 11.176370 -0.000000 0.000000 0.000000 -0.000000 0.000000 0.000000 0.000000 0.000000 0.000000 -0.000000 0.000000 0.000000 -0.000000 0.000000 0.000000 2.534372 -1.393391 -0.191462 -2.208212 -2.392380 -2.002214 0.000000 0.000000 0.000000 0.000000 0.000000 0.000000 0.529164 -0.895328 -0.229490 -0.532810 0.893163 0.237778 4.323162 -6.389461 -7.844190 -5.958560 5.315671 12.315356 0.000000 0.000000 0.000000 0.000000 0.000000 0.000000 -0.384921 -0.006362 11.176370 -0.000000 0.000000 0.000000 0.566010 10.131226 4.852077 0.000000 0.000000 0.000000 -0.384921 -0.006362 11.176370 -0.000000 0.000000 0.000000 2.291449 14.670603 -2.517505 0.000000 0.000000 0.000000
40.167915 44.087030 376.818096 0.436928 -0.139293 -10.889856 -0.455376 0.054236 10.890603 -0.000000 0.000000 0.000000 -0.000000 0.000000 0.000000 0.000000 0.000000 0.000000 -0.000000 0.000000 0.000000 -0.000000 0.000000 0.000000 3.335803 -1.710567 -0.197280 -2.977256 -3.090836 -2.545119 0.000000 0.000000 0.000000 0.000000 0.000000 0.000000 0.636538 -1.290220 -0.348602 -1.071286 2.058823 1.037427 5.930245 -9.592208 -10.626315 -7.919523 6.525294 15.758824 0.000000 0.000000 0.000000 0.000000 0.000000 0.000000 -0.455376 0.054236 10.890603 -0.000000 0.000000 0.000000 0.745959 12.372480 5.664668 0.000000 0.000000 0.000000 -0.455376 0.054236 10.890603 -0.000000 0.000000 0.000000 3.418802 19.550595 -3.702557 0.000000 0.000000 0.000000
40.181550 44.069497 376.894682 0.407581 -0.234715 -10.604426 -0.443816 0.155695 10.605864 -0.000000 0.000000 0.000000 -0.000000 0.000000 0.000000 0.000000 0.000000 0.000000 0.072163 -0.919168 0.148378 -0.069791 0.919352 -0.147240 3.837236 -1.777674 -0.155377 -3.507153 -3.505573 -2.828099 0.000000 0.000000 0.000000 0.000000 0.000000 0.000000 0.638859 -1.649298 -0.472247 -0.994994 2.905977 1.252032 6.823100 -12.143953 -12.167046 -9.302353 7.191771 17.561805 0.000000 0.000000 0.000000 0.000000 0.000000 0.000000 -0.443816 0.155695 10.605864 -0.000000 0.000000 0.000000 1.029408 13.228915 5.631536 0.000000 0.000000 0.000000 -0.443816 0.155695 10.605864 -0.000000 0.000000 0.000000 4.481182 23.066267 -4.797936 0.000000 0.000000 0.000000
40.126751 44.051374 376.986853 0.290843 -0.354657 -10.321317 -0.349684 0.296804 10.323123 -0.000000 0.000000 0.000000 -0.000000 0.000000 0.000000 0.000000 0.000000 0.000000 0.035139 -1.066128 0.174783 -0.031892 1.066230 -0.174160 4.040708 -1.593656 -0.069019 -3.793657 -3.653806 -2.865616 0.000000 0.000000 0.000000 0.000000 0.000000 0.000000 0.535995 -1.972094 -0.601401 -0.704006 3.836626 1.395719 7.470290 -14.608625 -13.117920 -10.220379 7.512982 17.848663 0.000000 0.000000 0.000000 0.000000 0.000000 0.000000 -0.349684 0.296804 10.323123 -0.740893 0.679868 -0.121473 2.165731 12.091915 4.905883 0.000000 0.000000 0.000000 -0.349684 0.296804 10.323123 -0.000000 0.000000 0.000000 5.456522 25.428207 -5.786719 0.000000 0.000000 0.000000
40.022163 44.010162 377.105381 0.101900 -0.522436 -9.974322 -0.190855 0.496888 9.975614 -0.000000 0.000000 0.000000 -0.000000 0.000000 0.000000 0.000000 0.000000 0.000000 -0.085412 -1.204788 0.204011 0.533452 0.279826 -0.544320 3.235464 -0.362090 0.258630 -3.922142 -2.313140 -1.787338 0.000000 0.000000 0.000000 0.000000 0.000000 0.000000 0.152306 -2.597094 -0.886059 0.362759 5.458981 1.299543 7.478260 -16.920021 -13.681096 -10.584316 7.270947 16.933591 0.000000 0.000000 0.000000 0.000000 0.000000 0.000000 -0.190855 0.496888 9.975614 -0.876380 1.106543 -0.123000 3.163197 12.046199 3.793260 0.000000 0.000000 0.000000 -0.190855 0.496888 9.975614 -0.000000 0.000000 0.000000 9.556466 24.639166 -9.703146 0.000000 0.000000 0.000000
39.823269 43.974537 377.224995 -0.208016 -0.668522 -9.483653 0.095033 0.693656 9.481864 -0.000000 0.000000 0.000000 -0.000000 0.000000 0.000000 0.000000 0.000000 0.000000 -0.194151 -1.336626 0.231230 0.795056 0.298481 -0.705752 3.145601 0.251023 0.552585 -3.625444 -0.873763 -1.093506 0.000000 0.000000 0.000000 0.000000 0.000000 0.000000 -0.398302 -3.164874 -1.185829 0.989474 6.553903 1.617638 7.944364 -18.788146 -14.511894 -10.245885 3.294075 17.798875 0.000000 0.000000 0.000000 0.000000 0.000000 0.000000 0.053468 0.208876 8.827666 -0.828271 1.972563 0.554946 3.171549 1.256139 -1.803644 0.000000 0.000000 0.000000 0.095033 0.693656 9.481864 -0.000000 0.000000 0.000000 11.984924 27.674728 -12.120691 0.000000 0.000000 0.000000
